<svg width="1080" height="1080" viewBox="0 0 1080 1080" fill="none" xmlns="http://www.w3.org/2000/svg">
<path d="M0 540C0 241.766 241.766 0 540 0V0C838.234 0 1080 241.766 1080 540V540C1080 838.234 838.234 1080 540 1080V1080C241.766 1080 0 838.234 0 540V540Z" fill="#F6F6F6"/>
<path d="M790 627.303V360.797C790 321.697 758.303 290 719.204 290C680.104 290 648.407 321.697 648.407 360.797V485.71L790 627.303Z" fill="#1F1F1F"/>
<path d="M290 452.697V719.203C290 758.303 321.697 790 360.796 790C399.896 790 431.593 758.303 431.593 719.203V594.29L290 452.697Z" fill="#1F1F1F"/>
<path fill-rule="evenodd" clip-rule="evenodd" d="M310.736 310.736C338.384 283.088 383.209 283.088 410.857 310.736L769.26 669.139C796.908 696.787 796.908 741.612 769.26 769.26C741.612 796.908 696.787 796.908 669.139 769.26L310.736 410.857C283.088 383.209 283.088 338.384 310.736 310.736Z" fill="#1F1F1F"/>
</svg>
